<?xml version="1.0" encoding="utf-8"?>
<svg xmlns="http://www.w3.org/2000/svg" width="874" height="300" viewBox="0 0 231.24292 79.374" version="1.1" id="svg8">
  <defs id="defs2">
    <marker orient="auto" refY="0" refX="0" id="Arrow2Lend-3" style="overflow:visible">
      <path id="path1241-6" style="fill:#800080;fill-opacity:1;fill-rule:evenodd;stroke:none;stroke-width:0.625;stroke-linejoin:round;stroke-opacity:1" d="M 8.7185878,4.0337352 -2.2072895,0.01601326 8.7185884,-4.0017078 c -1.7454984,2.3720609 -1.7354408,5.6174519 -6e-7,8.035443 z" transform="matrix(-1.1,0,0,-1.1,-1.1,0)"/>
    </marker>
    <marker orient="auto" refY="0" refX="0" id="marker1504-1" style="overflow:visible">
      <path id="path1502-2" style="fill:#800080;fill-opacity:1;fill-rule:evenodd;stroke:none;stroke-width:0.625;stroke-linejoin:round;stroke-opacity:1" d="M 8.7185878,4.0337352 -2.2072895,0.01601326 8.7185884,-4.0017078 c -1.7454984,2.3720609 -1.7354408,5.6174519 -6e-7,8.035443 z" transform="matrix(-1.1,0,0,-1.1,-1.1,0)"/>
    </marker>
    <marker orient="auto" refY="0" refX="0" id="Arrow2Lend-31" style="overflow:visible">
      <path id="path1241-9" style="fill:#800080;fill-opacity:1;fill-rule:evenodd;stroke:none;stroke-width:0.625;stroke-linejoin:round;stroke-opacity:1" d="M 8.7185878,4.0337352 -2.2072895,0.01601326 8.7185884,-4.0017078 c -1.7454984,2.3720609 -1.7354408,5.6174519 -6e-7,8.035443 z" transform="matrix(-1.1,0,0,-1.1,-1.1,0)"/>
    </marker>
    <marker orient="auto" refY="0" refX="0" id="marker1504-4" style="overflow:visible">
      <path id="path1502-7" style="fill:#800080;fill-opacity:1;fill-rule:evenodd;stroke:none;stroke-width:0.625;stroke-linejoin:round;stroke-opacity:1" d="M 8.7185878,4.0337352 -2.2072895,0.01601326 8.7185884,-4.0017078 c -1.7454984,2.3720609 -1.7354408,5.6174519 -6e-7,8.035443 z" transform="matrix(-1.1,0,0,-1.1,-1.1,0)"/>
    </marker>
  </defs>
  <rect y="22.332" x="35.767" height="34.896" width="75.231" id="rect-14" style="opacity: 1; fill: rgb(255, 85, 85); fill-opacity: 1; stroke: none; stroke-width: 2.91; stroke-linecap: round; stroke-linejoin: round; stroke-miterlimit: 4; stroke-dasharray: none; stroke-dashoffset: 0; stroke-opacity: 1; paint-order: markers;"/>
  <circle r="3.255" cy="31.912" cx="96.356" id="circle-5" style="opacity: 1; fill: rgb(40, 11, 11); fill-opacity: 1; stroke: rgb(255, 255, 255); stroke-width: 0.644; stroke-linecap: round; stroke-linejoin: round; stroke-miterlimit: 4; stroke-dasharray: none; stroke-dashoffset: 0; stroke-opacity: 1; paint-order: markers;"/>
  <circle r="3.255" cy="38.348" cx="89.561" id="circle-6" style="opacity: 1; fill: rgb(40, 11, 11); fill-opacity: 1; stroke: rgb(255, 255, 255); stroke-width: 0.644; stroke-linecap: round; stroke-linejoin: round; stroke-miterlimit: 4; stroke-dasharray: none; stroke-dashoffset: 0; stroke-opacity: 1; paint-order: markers;"/>
  <circle r="3.255" cy="38.159" cx="102.979" id="circle-7" style="opacity: 1; fill: rgb(40, 11, 11); fill-opacity: 1; stroke: rgb(255, 255, 255); stroke-width: 0.644; stroke-linecap: round; stroke-linejoin: round; stroke-miterlimit: 4; stroke-dasharray: none; stroke-dashoffset: 0; stroke-opacity: 1; paint-order: markers;"/>
  <circle r="3.255" cy="44.562" cx="96.356" id="circle-8" style="opacity: 1; fill: rgb(40, 11, 11); fill-opacity: 1; stroke: rgb(255, 255, 255); stroke-width: 0.644; stroke-linecap: round; stroke-linejoin: round; stroke-miterlimit: 4; stroke-dasharray: none; stroke-dashoffset: 0; stroke-opacity: 1; paint-order: markers;"/>
  <rect y="27.349" x="38.111" height="22" width="22" id="rect-7" style="opacity: 1; fill: rgb(255, 204, 0); stroke: none; stroke-width: 0.463; stroke-linecap: round; stroke-linejoin: round; stroke-miterlimit: 4; stroke-dasharray: none; stroke-dashoffset: 0; stroke-opacity: 1; paint-order: markers;"/>
  <path d="M 70.225 49.406 C 70.225 52.756 68.416 55.678 65.732 57.228 L 56.924 57.228 C 54.24 55.678 52.431 52.756 52.431 49.406 C 52.431 44.435 56.414 40.406 61.328 40.406 C 66.242 40.406 70.225 44.435 70.225 49.406 Z" id="path-7" style="opacity: 1; fill-opacity: 1; stroke: none; stroke-width: 2.91; stroke-linecap: round; stroke-linejoin: round; stroke-miterlimit: 4; stroke-dasharray: none; stroke-dashoffset: 0; stroke-opacity: 1; paint-order: markers; fill: rgb(66, 114, 245);"/>
  <path id="path-2" d="M 49.283 29.38 C 47.529 29.38 46.119 30.941 46.119 32.88 L 46.119 35.264 L 43.643 35.264 C 41.704 35.264 40.143 36.673 40.143 38.425 C 40.143 40.177 41.704 41.587 43.643 41.587 L 46.119 41.587 L 46.119 43.817 C 46.119 45.756 47.529 47.317 49.283 47.317 C 51.035 47.317 52.442 45.756 52.442 43.817 L 52.442 41.587 L 54.58 41.587 C 56.519 41.587 58.08 40.177 58.08 38.425 C 58.08 36.673 56.519 35.264 54.58 35.264 L 52.442 35.264 L 52.442 32.88 C 52.442 30.941 51.035 29.38 49.283 29.38 Z" style="opacity: 1; fill: rgb(40, 11, 11); fill-opacity: 1; stroke: rgb(255, 255, 255); stroke-width: 0.676; stroke-linecap: round; stroke-linejoin: round; stroke-miterlimit: 4; stroke-dasharray: none; stroke-dashoffset: 0; stroke-opacity: 1; paint-order: markers;"/>
  <ellipse style="fill: none; stroke-width: 0.676; stroke: rgb(255, 255, 255);" cx="61.328" cy="49.406" rx="6.499" ry="6.574"/>
  <circle r="3.25" cy="49.406" cx="61.328" id="circle-9" style="opacity: 1; fill: rgb(40, 11, 11); fill-opacity: 1; stroke: rgb(255, 255, 255); stroke-linecap: round; stroke-linejoin: round; stroke-miterlimit: 4; stroke-dasharray: none; stroke-dashoffset: 0; stroke-opacity: 1; paint-order: markers; stroke-width: 0.644;"/>
  <circle r="3.25" cy="49.406" cx="83.058" id="circle-10" style="opacity: 1; fill: rgb(40, 11, 11); fill-opacity: 1; stroke: rgb(255, 255, 255); stroke-linecap: round; stroke-linejoin: round; stroke-miterlimit: 4; stroke-dasharray: none; stroke-dashoffset: 0; stroke-opacity: 1; paint-order: markers; stroke-width: 0.644;"/>
  <ellipse style="fill: none; stroke-width: 0.676; stroke: rgb(255, 255, 255);" cx="83.058" cy="49.406" rx="6.499" ry="6.574"/>
  <rect y="42.913" x="120.244" height="34.896" width="75.231" id="rect-8" style="opacity: 1; fill: rgb(255, 85, 85); fill-opacity: 1; stroke: none; stroke-width: 2.91; stroke-linecap: round; stroke-linejoin: round; stroke-miterlimit: 4; stroke-dasharray: none; stroke-dashoffset: 0; stroke-opacity: 1; paint-order: markers;"/>
  <circle r="3.255" cy="52.492" cx="180.832" id="circle-13" style="opacity: 1; fill: rgb(40, 11, 11); fill-opacity: 1; stroke: rgb(255, 255, 255); stroke-width: 0.644; stroke-linecap: round; stroke-linejoin: round; stroke-miterlimit: 4; stroke-dasharray: none; stroke-dashoffset: 0; stroke-opacity: 1; paint-order: markers;"/>
  <circle r="3.255" cy="58.929" cx="174.038" id="circle-14" style="opacity: 1; fill: rgb(40, 11, 11); fill-opacity: 1; stroke: rgb(255, 255, 255); stroke-width: 0.644; stroke-linecap: round; stroke-linejoin: round; stroke-miterlimit: 4; stroke-dasharray: none; stroke-dashoffset: 0; stroke-opacity: 1; paint-order: markers;"/>
  <circle r="3.255" cy="58.74" cx="187.456" id="circle-15" style="opacity: 1; fill: rgb(40, 11, 11); fill-opacity: 1; stroke: rgb(255, 255, 255); stroke-width: 0.644; stroke-linecap: round; stroke-linejoin: round; stroke-miterlimit: 4; stroke-dasharray: none; stroke-dashoffset: 0; stroke-opacity: 1; paint-order: markers;"/>
  <circle r="3.255" cy="65.143" cx="180.832" id="circle-16" style="opacity: 1; fill: rgb(40, 11, 11); fill-opacity: 1; stroke: rgb(255, 255, 255); stroke-width: 0.644; stroke-linecap: round; stroke-linejoin: round; stroke-miterlimit: 4; stroke-dasharray: none; stroke-dashoffset: 0; stroke-opacity: 1; paint-order: markers;"/>
  <path d="M 154.702 69.987 C 154.702 73.337 152.893 76.259 150.209 77.809 L 141.401 77.809 C 138.717 76.259 136.908 73.337 136.908 69.987 C 136.908 65.016 140.891 60.987 145.805 60.987 C 150.719 60.987 154.702 65.016 154.702 69.987 Z" id="path-5" style="opacity: 1; fill-opacity: 1; stroke: none; stroke-width: 2.91; stroke-linecap: round; stroke-linejoin: round; stroke-miterlimit: 4; stroke-dasharray: none; stroke-dashoffset: 0; stroke-opacity: 1; paint-order: markers; fill: rgb(66, 114, 245);"/>
  <ellipse style="fill: none; stroke-width: 0.676; stroke: rgb(255, 255, 255);" cx="145.805" cy="69.987" rx="6.499" ry="6.574"/>
  <circle r="3.25" cy="69.987" cx="145.805" id="circle-17" style="opacity: 1; fill: rgb(40, 11, 11); fill-opacity: 1; stroke: rgb(255, 255, 255); stroke-linecap: round; stroke-linejoin: round; stroke-miterlimit: 4; stroke-dasharray: none; stroke-dashoffset: 0; stroke-opacity: 1; paint-order: markers; stroke-width: 0.644;"/>
  <path d="M 148.588 43.93 L 148.588 73.93 L 120.244 73.93 L 120.244 43.93 L 148.588 43.93 Z" id="path-4" style="opacity: 1; fill-opacity: 1; stroke: none; stroke-width: 2.91; stroke-linecap: round; stroke-linejoin: round; stroke-miterlimit: 4; stroke-dasharray: none; stroke-dashoffset: 0; stroke-opacity: 1; paint-order: markers; fill: rgb(255, 204, 0);"/>
  <circle r="3.25" cy="69.987" cx="167.535" id="circle-18" style="opacity: 1; fill: rgb(40, 11, 11); fill-opacity: 1; stroke: rgb(255, 255, 255); stroke-linecap: round; stroke-linejoin: round; stroke-miterlimit: 4; stroke-dasharray: none; stroke-dashoffset: 0; stroke-opacity: 1; paint-order: markers; stroke-width: 0.644;"/>
  <ellipse style="fill: none; stroke-width: 0.676; stroke: rgb(255, 255, 255);" cx="167.535" cy="69.987" rx="6.499" ry="6.574"/>
  <rect y="1.562" x="120.212" height="34.896" width="75.231" id="rect-2" style="opacity: 1; fill: rgb(255, 85, 85); fill-opacity: 1; stroke: none; stroke-width: 2.91; stroke-linecap: round; stroke-linejoin: round; stroke-miterlimit: 4; stroke-dasharray: none; stroke-dashoffset: 0; stroke-opacity: 1; paint-order: markers;"/>
  <circle r="3.255" cy="11.141" cx="180.8" id="circle-1" style="opacity: 1; fill: rgb(40, 11, 11); fill-opacity: 1; stroke: rgb(255, 255, 255); stroke-width: 0.644; stroke-linecap: round; stroke-linejoin: round; stroke-miterlimit: 4; stroke-dasharray: none; stroke-dashoffset: 0; stroke-opacity: 1; paint-order: markers;"/>
  <circle r="3.255" cy="17.578" cx="174.005" id="circle-2" style="opacity: 1; fill: rgb(40, 11, 11); fill-opacity: 1; stroke: rgb(255, 255, 255); stroke-width: 0.644; stroke-linecap: round; stroke-linejoin: round; stroke-miterlimit: 4; stroke-dasharray: none; stroke-dashoffset: 0; stroke-opacity: 1; paint-order: markers;"/>
  <circle r="3.255" cy="17.389" cx="187.423" id="circle-3" style="opacity: 1; fill: rgb(40, 11, 11); fill-opacity: 1; stroke: rgb(255, 255, 255); stroke-width: 0.644; stroke-linecap: round; stroke-linejoin: round; stroke-miterlimit: 4; stroke-dasharray: none; stroke-dashoffset: 0; stroke-opacity: 1; paint-order: markers;"/>
  <circle r="3.255" cy="23.792" cx="180.8" id="circle-4" style="opacity: 1; fill: rgb(40, 11, 11); fill-opacity: 1; stroke: rgb(255, 255, 255); stroke-width: 0.644; stroke-linecap: round; stroke-linejoin: round; stroke-miterlimit: 4; stroke-dasharray: none; stroke-dashoffset: 0; stroke-opacity: 1; paint-order: markers;"/>
  <rect y="6.578" x="122.555" height="22" width="22" id="rect-5" style="opacity: 1; fill: rgb(255, 204, 0); stroke: none; stroke-width: 0.463; stroke-linecap: round; stroke-linejoin: round; stroke-miterlimit: 4; stroke-dasharray: none; stroke-dashoffset: 0; stroke-opacity: 1; paint-order: markers;"/>
  <path id="path-1" d="M 133.727 8.61 C 131.973 8.61 130.563 10.171 130.563 12.109 L 130.563 14.493 L 128.087 14.493 C 126.148 14.493 124.587 15.903 124.587 17.655 C 124.587 19.406 126.148 20.816 128.087 20.816 L 130.563 20.816 L 130.563 23.047 C 130.563 24.986 131.973 26.547 133.727 26.547 C 135.479 26.547 136.886 24.986 136.886 23.047 L 136.886 20.816 L 139.024 20.816 C 140.963 20.816 142.524 19.406 142.524 17.655 C 142.524 15.903 140.963 14.493 139.024 14.493 L 136.886 14.493 L 136.886 12.109 C 136.886 10.171 135.479 8.61 133.727 8.61 Z" style="opacity: 1; fill: rgb(40, 11, 11); fill-opacity: 1; stroke: rgb(255, 255, 255); stroke-width: 0.676; stroke-linecap: round; stroke-linejoin: round; stroke-miterlimit: 4; stroke-dasharray: none; stroke-dashoffset: 0; stroke-opacity: 1; paint-order: markers;"/>
  <path d="M 160.602 28.636 C 160.602 31.502 159.807 34.18 158.428 36.458 L 133.115 36.458 C 131.736 34.18 130.941 31.502 130.941 28.636 C 130.941 20.352 137.581 13.636 145.771 13.636 C 153.961 13.636 160.601 20.352 160.601 28.636 L 160.602 28.636 Z" id="path-6" style="opacity: 1; fill-opacity: 1; stroke: none; stroke-width: 2.91; stroke-linecap: round; stroke-linejoin: round; stroke-miterlimit: 4; stroke-dasharray: none; stroke-dashoffset: 0; stroke-opacity: 1; paint-order: markers; fill: rgb(66, 114, 245);"/>
  <g>
    <circle r="3.25" cy="28.636" cx="145.772" id="circle-11" style="opacity: 1; fill: rgb(40, 11, 11); fill-opacity: 1; stroke: rgb(255, 255, 255); stroke-linecap: round; stroke-linejoin: round; stroke-miterlimit: 4; stroke-dasharray: none; stroke-dashoffset: 0; stroke-opacity: 1; paint-order: markers; stroke-width: 0.644;"/>
    <ellipse style="fill: none; stroke-width: 0.676; stroke: rgb(255, 255, 255);" cx="145.772" cy="28.636" rx="6.499" ry="6.574"/>
  </g>
  <circle r="3.25" cy="28.636" cx="167.503" id="circle-12" style="opacity: 1; fill: rgb(40, 11, 11); fill-opacity: 1; stroke: rgb(255, 255, 255); stroke-linecap: round; stroke-linejoin: round; stroke-miterlimit: 4; stroke-dasharray: none; stroke-dashoffset: 0; stroke-opacity: 1; paint-order: markers; stroke-width: 0.644;"/>
  <ellipse style="fill: none; stroke-width: 0.676; stroke: rgb(255, 255, 255);" cx="167.503" cy="28.636" rx="6.499" ry="6.574"/>
  <path id="path1218-9" d="M 116.424 27.456 L 119.142 27.456" style="fill: rgb(128, 0, 128); stroke: none; stroke-width: 0.495; stroke-linecap: butt; stroke-linejoin: miter; stroke-miterlimit: 4; stroke-dasharray: none; stroke-opacity: 1; marker-start: url(&quot;#Arrow2Lend-3&quot;); marker-end: url(&quot;#marker1504-1&quot;);"/>
  <path id="path1218-8" d="M 116.424 51.835 L 119.142 51.835" style="fill: rgb(128, 0, 128); stroke: none; stroke-width: 0.495; stroke-linecap: butt; stroke-linejoin: miter; stroke-miterlimit: 4; stroke-dasharray: none; stroke-opacity: 1; marker-start: url(&quot;#Arrow2Lend-31&quot;); marker-end: url(&quot;#marker1504-4&quot;);"/>
  <path id="path-3" d="M 133.76 49.961 C 132.006 49.961 130.596 51.521 130.596 53.46 L 130.596 55.844 L 128.12 55.844 C 126.181 55.844 124.62 57.254 124.62 59.006 C 124.62 60.757 126.181 62.167 128.12 62.167 L 130.596 62.167 L 130.596 64.398 C 130.596 66.337 132.006 67.898 133.76 67.898 C 135.511 67.898 136.919 66.337 136.919 64.398 L 136.919 62.167 L 139.056 62.167 C 140.995 62.167 142.556 60.757 142.556 59.006 C 142.556 57.254 140.995 55.844 139.056 55.844 L 136.919 55.844 L 136.919 53.46 C 136.919 51.521 135.511 49.961 133.76 49.961 Z" style="opacity: 1; fill: rgb(40, 11, 11); fill-opacity: 1; stroke: rgb(255, 255, 255); stroke-width: 0.676; stroke-linecap: round; stroke-linejoin: round; stroke-miterlimit: 4; stroke-dasharray: none; stroke-dashoffset: 0; stroke-opacity: 1; paint-order: markers;"/>
</svg>