<?xml version="1.0" encoding="utf-8"?>
<svg xmlns="http://www.w3.org/2000/svg" width="874px" height="141.3px" viewBox="0 0 231.2 36.4" version="1.1" id="svg8">
  <defs id="defs2">
    <marker orient="auto" refY="0" refX="0" id="marker1504" style="overflow:visible">
      <path id="path1502" style="fill:#800080;fill-opacity:1;fill-rule:evenodd;stroke:none;stroke-width:0.625;stroke-linejoin:round;stroke-opacity:1" d="M 8.7185878,4.0337352 -2.2072895,0.01601326 8.7185884,-4.0017078 c -1.7454984,2.3720609 -1.7354408,5.6174519 -6e-7,8.035443 z" transform="matrix(-1.1,0,0,-1.1,-1.1,0)"/>
    </marker>
    <marker orient="auto" refY="0" refX="0" id="Arrow2Lend" style="overflow:visible">
      <path id="path1241" style="fill:#800080;fill-opacity:1;fill-rule:evenodd;stroke:none;stroke-width:0.625;stroke-linejoin:round;stroke-opacity:1" d="M 8.7185878,4.0337352 -2.2072895,0.01601326 8.7185884,-4.0017078 c -1.7454984,2.3720609 -1.7354408,5.6174519 -6e-7,8.035443 z" transform="matrix(-1.1,0,0,-1.1,-1.1,0)"/>
    </marker>
  </defs>
  <g transform="matrix(1, 0, 0, 1, -0.000502, -0.499999)">
    <rect y="1.154" x="120.208" height="34.896" width="75.231" id="rect-14" style="opacity: 1; fill: rgb(255, 85, 85); fill-opacity: 1; stroke: none; stroke-width: 2.91; stroke-linecap: round; stroke-linejoin: round; stroke-miterlimit: 4; stroke-dasharray: none; stroke-dashoffset: 0; stroke-opacity: 1; paint-order: markers;"/>
    <rect y="1.48" x="120.252" height="30.397" width="22.797" id="rect-6" style="opacity: 1; fill: rgb(255, 204, 0); stroke: none; stroke-width: 0.661; stroke-linecap: round; stroke-linejoin: round; stroke-miterlimit: 4; stroke-dasharray: none; stroke-dashoffset: 0; stroke-opacity: 1; paint-order: markers;"/>
    <circle r="3.255" cy="10.734" cx="180.797" id="circle-5" style="opacity: 1; fill: rgb(40, 11, 11); fill-opacity: 1; stroke: rgb(255, 255, 255); stroke-width: 0.644; stroke-linecap: round; stroke-linejoin: round; stroke-miterlimit: 4; stroke-dasharray: none; stroke-dashoffset: 0; stroke-opacity: 1; paint-order: markers;"/>
    <circle r="3.255" cy="17.17" cx="174.002" id="circle-6" style="opacity: 1; fill: rgb(40, 11, 11); fill-opacity: 1; stroke: rgb(255, 255, 255); stroke-width: 0.644; stroke-linecap: round; stroke-linejoin: round; stroke-miterlimit: 4; stroke-dasharray: none; stroke-dashoffset: 0; stroke-opacity: 1; paint-order: markers;"/>
    <circle r="3.255" cy="16.981" cx="187.42" id="circle-7" style="opacity: 1; fill: rgb(40, 11, 11); fill-opacity: 1; stroke: rgb(255, 255, 255); stroke-width: 0.644; stroke-linecap: round; stroke-linejoin: round; stroke-miterlimit: 4; stroke-dasharray: none; stroke-dashoffset: 0; stroke-opacity: 1; paint-order: markers;"/>
    <circle r="3.255" cy="23.384" cx="180.797" id="circle-8" style="opacity: 1; fill: rgb(40, 11, 11); fill-opacity: 1; stroke: rgb(255, 255, 255); stroke-width: 0.644; stroke-linecap: round; stroke-linejoin: round; stroke-miterlimit: 4; stroke-dasharray: none; stroke-dashoffset: 0; stroke-opacity: 1; paint-order: markers;"/>
    <path id="path-2" d="M 133.723 8.202 C 131.969 8.202 130.559 9.763 130.559 11.702 L 130.559 14.085 L 128.083 14.085 C 126.144 14.085 124.583 15.495 124.583 17.247 C 124.583 18.999 126.144 20.408 128.083 20.408 L 130.559 20.408 L 130.559 22.639 C 130.559 24.578 131.969 26.139 133.723 26.139 C 135.475 26.139 136.882 24.578 136.882 22.639 L 136.882 20.408 L 139.02 20.408 C 140.959 20.408 142.52 18.999 142.52 17.247 C 142.52 15.495 140.959 14.085 139.02 14.085 L 136.882 14.085 L 136.882 11.702 C 136.882 9.763 135.475 8.202 133.723 8.202 Z" style="opacity: 1; fill: rgb(40, 11, 11); fill-opacity: 1; stroke: rgb(255, 255, 255); stroke-width: 0.676; stroke-linecap: round; stroke-linejoin: round; stroke-miterlimit: 4; stroke-dasharray: none; stroke-dashoffset: 0; stroke-opacity: 1; paint-order: markers;"/>
    <circle r="3.25" cy="28.228" cx="145.769" id="circle-9" style="opacity: 1; fill: rgb(40, 11, 11); fill-opacity: 1; stroke: rgb(255, 255, 255); stroke-linecap: round; stroke-linejoin: round; stroke-miterlimit: 4; stroke-dasharray: none; stroke-dashoffset: 0; stroke-opacity: 1; paint-order: markers; stroke-width: 0.644;"/>
    <ellipse style="fill: none; stroke-width: 0.676; stroke: rgb(255, 255, 255);" cx="145.769" cy="28.228" rx="6.499" ry="6.574"/>
    <circle r="3.25" cy="28.228" cx="167.499" id="circle-10" style="opacity: 1; fill: rgb(40, 11, 11); fill-opacity: 1; stroke: rgb(255, 255, 255); stroke-linecap: round; stroke-linejoin: round; stroke-miterlimit: 4; stroke-dasharray: none; stroke-dashoffset: 0; stroke-opacity: 1; paint-order: markers; stroke-width: 0.644;"/>
    <ellipse style="fill: none; stroke-width: 0.676; stroke: rgb(255, 255, 255);" cx="167.499" cy="28.228" rx="6.499" ry="6.574"/>
    <rect y="1.35" x="35.762" height="34.896" width="75.231" id="rect-2" style="opacity: 1; fill: rgb(255, 85, 85); fill-opacity: 1; stroke: none; stroke-width: 2.91; stroke-linecap: round; stroke-linejoin: round; stroke-miterlimit: 4; stroke-dasharray: none; stroke-dashoffset: 0; stroke-opacity: 1; paint-order: markers;"/>
    <circle r="3.255" cy="10.93" cx="96.35" id="circle-1" style="opacity: 1; fill: rgb(40, 11, 11); fill-opacity: 1; stroke: rgb(255, 255, 255); stroke-width: 0.644; stroke-linecap: round; stroke-linejoin: round; stroke-miterlimit: 4; stroke-dasharray: none; stroke-dashoffset: 0; stroke-opacity: 1; paint-order: markers;"/>
    <circle r="3.255" cy="17.366" cx="89.556" id="circle-2" style="opacity: 1; fill: rgb(40, 11, 11); fill-opacity: 1; stroke: rgb(255, 255, 255); stroke-width: 0.644; stroke-linecap: round; stroke-linejoin: round; stroke-miterlimit: 4; stroke-dasharray: none; stroke-dashoffset: 0; stroke-opacity: 1; paint-order: markers;"/>
    <circle r="3.255" cy="17.178" cx="102.974" id="circle-3" style="opacity: 1; fill: rgb(40, 11, 11); fill-opacity: 1; stroke: rgb(255, 255, 255); stroke-width: 0.644; stroke-linecap: round; stroke-linejoin: round; stroke-miterlimit: 4; stroke-dasharray: none; stroke-dashoffset: 0; stroke-opacity: 1; paint-order: markers;"/>
    <circle r="3.255" cy="23.581" cx="96.35" id="circle-4" style="opacity: 1; fill: rgb(40, 11, 11); fill-opacity: 1; stroke: rgb(255, 255, 255); stroke-width: 0.644; stroke-linecap: round; stroke-linejoin: round; stroke-miterlimit: 4; stroke-dasharray: none; stroke-dashoffset: 0; stroke-opacity: 1; paint-order: markers;"/>
    <rect y="7.869" x="39.609" height="18.998" width="18.998" id="rect-5" style="opacity: 1; fill: rgb(255, 204, 0); stroke: none; stroke-width: 0.463; stroke-linecap: round; stroke-linejoin: round; stroke-miterlimit: 4; stroke-dasharray: none; stroke-dashoffset: 0; stroke-opacity: 1; paint-order: markers;"/>
    <path id="path-1" d="M 49.278 8.398 C 47.524 8.398 46.114 9.959 46.114 11.898 L 46.114 14.282 L 43.638 14.282 C 41.698 14.282 40.138 15.692 40.138 17.443 C 40.138 19.195 41.698 20.605 43.638 20.605 L 46.114 20.605 L 46.114 22.836 C 46.114 24.775 47.524 26.335 49.278 26.335 C 51.029 26.335 52.437 24.775 52.437 22.836 L 52.437 20.605 L 54.574 20.605 C 56.513 20.605 58.074 19.195 58.074 17.443 C 58.074 15.692 56.513 14.282 54.574 14.282 L 52.437 14.282 L 52.437 11.898 C 52.437 9.959 51.029 8.398 49.278 8.398 Z" style="opacity: 1; fill: rgb(40, 11, 11); fill-opacity: 1; stroke: rgb(255, 255, 255); stroke-width: 0.676; stroke-linecap: round; stroke-linejoin: round; stroke-miterlimit: 4; stroke-dasharray: none; stroke-dashoffset: 0; stroke-opacity: 1; paint-order: markers;"/>
    <circle r="3.25" cy="28.424" cx="61.322" id="circle-11" style="opacity: 1; fill: rgb(40, 11, 11); fill-opacity: 1; stroke: rgb(255, 255, 255); stroke-linecap: round; stroke-linejoin: round; stroke-miterlimit: 4; stroke-dasharray: none; stroke-dashoffset: 0; stroke-opacity: 1; paint-order: markers; stroke-width: 0.644;"/>
    <ellipse style="fill: none; stroke-width: 0.676; stroke: rgb(255, 255, 255);" cx="61.322" cy="28.424" rx="6.499" ry="6.574"/>
    <circle r="3.25" cy="28.424" cx="83.053" id="circle-12" style="opacity: 1; fill: rgb(40, 11, 11); fill-opacity: 1; stroke: rgb(255, 255, 255); stroke-linecap: round; stroke-linejoin: round; stroke-miterlimit: 4; stroke-dasharray: none; stroke-dashoffset: 0; stroke-opacity: 1; paint-order: markers; stroke-width: 0.644;"/>
    <ellipse style="fill: none; stroke-width: 0.676; stroke: rgb(255, 255, 255);" cx="83.053" cy="28.424" rx="6.499" ry="6.574"/>
    <path id="path1218" d="M 116.585 18.175 L 119.304 18.175" style="fill: rgb(128, 0, 128); stroke: none; stroke-width: 0.495; stroke-linecap: butt; stroke-linejoin: miter; stroke-miterlimit: 4; stroke-dasharray: none; stroke-opacity: 1; marker-start: url(&quot;#Arrow2Lend&quot;); marker-end: url(&quot;#marker1504&quot;); transform-origin: 117.966px 37.86px;"/>
  </g>
</svg>